<svg width="32" height="32" viewBox="0 0 32 32" fill="none" xmlns="http://www.w3.org/2000/svg">
<path fill-rule="evenodd" clip-rule="evenodd" d="M9.9546 5.81812H11.8637V7.72721H15.0455V5.81812H16.9546V7.72721H20.1364V5.81812H22.0455V7.72721H25.1819C25.7342 7.72721 26.1819 8.17492 26.1819 8.72721V10.909H5.81824V8.72721C5.81824 8.17492 6.26595 7.72721 6.81824 7.72721H9.9546V5.81812ZM5.81824 25.1818C5.81824 25.734 6.26595 26.1818 6.81824 26.1818H25.1819C25.7342 26.1818 26.1819 25.734 26.1819 25.1818V12.8181H5.81824V25.1818ZM9.31824 15.3636H12.5001V18.5454H9.31824V15.3636ZM12.5001 20.4545H9.31824V23.6363H12.5001V20.4545ZM14.4091 15.3639H17.591V18.5457H14.4091V15.3639ZM17.591 20.4545H14.4091V23.6363H17.591V20.4545ZM19.5001 15.3636H22.6819V18.5454H19.5001V15.3636Z" fill="#17A1CC"/>
</svg>
