<svg width="32" height="32" viewBox="0 0 32 32" fill="none" xmlns="http://www.w3.org/2000/svg">
<path d="M16.7881 22.3743L19.1395 20.023C24.3854 14.777 25.335 9.38929 25.5024 7.36561C25.5215 7.14638 25.4422 6.93133 25.2885 6.77525C25.1337 6.61917 24.9192 6.53934 24.6994 6.55542C22.6626 6.70495 17.229 7.61105 11.9783 12.8618L9.62635 15.2137L8.89956 15.0719C7.49782 14.7997 6.0514 15.2417 5.04105 16.252L2.23459 19.0585C2.06839 19.2247 2.00643 19.4701 2.07375 19.6959C2.14226 19.9217 2.32931 20.0909 2.56045 20.1362L4.91059 20.6074C5.57006 20.7402 6.17591 21.0637 6.65189 21.5397L7.68905 22.5768L6.32901 23.9369C6.0788 24.1871 6.0788 24.5922 6.32841 24.8418L7.15885 25.6722C7.40846 25.9218 7.81355 25.9218 8.06376 25.6716L9.4238 24.3116L10.4604 25.3482C10.9363 25.8241 11.2616 26.4294 11.3933 27.0912L11.8639 29.4396C11.9092 29.6707 12.0783 29.8578 12.3041 29.9263C12.5299 29.9936 12.7753 29.9317 12.9416 29.7655L15.748 26.959C16.7572 25.9498 17.1986 24.5028 16.9281 23.1005L16.7881 22.3743ZM16.8918 15.11C16.0304 14.2486 16.0298 12.8504 16.8912 11.989C17.7532 11.127 19.1508 11.1282 20.0122 11.9896C20.873 12.8504 20.8742 14.248 20.0122 15.11C19.1508 15.9714 17.7526 15.9709 16.8918 15.11Z" fill="#17A1CC"/>
</svg>
