<svg width="324" height="40" viewBox="0 0 324 40" fill="none" xmlns="http://www.w3.org/2000/svg">
<path d="M75.4658 14.789H48.0853L47.0708 15.5503V39.9932H54.6504V30.8272L55.3739 30.1766H75.4668C80.54 30.1766 82.9185 28.8069 82.9185 25.2924V19.6801C82.9175 16.1597 80.54 14.789 75.4658 14.789ZM75.4658 23.8256C75.4658 25.4815 74.3742 25.8254 71.9957 25.8254H55.4569L54.6494 25.0376V19.8016L55.3729 19.1373H71.9957C74.3742 19.1373 75.4658 19.4773 75.4658 21.141V23.8256Z" fill="white"/>
<path d="M96.7402 19.4126L103.262 29.0019L102.901 29.9307H88.4771L84.7952 34.4759H106.266L107.754 35.3852L111.087 39.999H119.761L100.748 14.4764" fill="white"/>
<path d="M182.99 35.0344V28.2504L183.771 27.5743H198.282V23.2544H175.283V39.9981H209.208V35.6987H183.805" fill="white"/>
<path d="M209.566 14.789H175.283V19.539H209.566V14.789Z" fill="white"/>
<path d="M137.045 19.2872H164.665C164.239 15.7629 162.06 14.7851 156.532 14.7851H136.751C130.513 14.7851 128.523 16.0069 128.523 20.7442V34.0351C128.523 38.7773 130.513 39.9991 136.751 39.9991H156.532C162.141 39.9991 164.289 38.9419 164.435 35.2863H137.045L136.233 34.5191V19.8006" fill="white"/>
<path d="M28.6398 24.6104H8.54697L7.95528 23.9569V19.6439L8.54404 19.1873H35.6307L36.0007 18.279C35.0781 15.8972 32.6889 14.7861 28.2522 14.7861H9.43645C3.20228 14.7861 1.20949 16.0079 1.20949 20.7452V23.5317C1.20949 28.2749 3.20228 29.4947 9.43645 29.4947H29.4844L30.1142 30.0493V34.5583L29.6006 35.2618H6.66842V35.2402H0.661747C0.661747 35.2402 -0.0256228 35.5861 0.000739353 35.7477C0.513337 39.0614 2.76291 40 8.1486 40H28.6398C34.873 40 36.9254 38.7782 36.9254 34.036V30.5646C36.9254 25.8303 34.873 24.6104 28.6398 24.6104Z" fill="white"/>
<path d="M231.133 14.6851H219.854L219.242 15.854L231.767 25.016C234.14 23.6375 236.721 22.2403 239.529 20.8617" fill="white"/>
<path d="M241.238 31.9442L252.247 40H263.662L264.135 38.933L247.697 26.8591C245.514 28.4669 243.357 30.1649 241.238 31.9442Z" fill="white"/>
<path d="M229.454 39.9814H219.25L218.388 38.6263C225.326 31.904 256.357 3.08732 323.809 0C323.809 0 267.193 1.91647 229.454 39.9814Z" fill="#17A1CC"/>
</svg>
